{
  "asset": {
    "version": "2.0",
    "generator": "THREE.GLTFExporter"
  },
  "scenes": [
    {
      "nodes": [
        1
      ],
      "name": "Scene"
    }
  ],
  "scene": 0,
  "nodes": [
    {
      "matrix": [
        0.8886137058745036,
        0.07323819712763167,
        -0.4527712979126165,
        0,
        -0.06525571146051361,
        0.9973144772244581,
        0.03324944571399695,
        0,
        0.45399049973954675,
        0,
        0.8910065241883679,
        0,
        0.9382533146325651,
        -1.8250603066547428,
        0.6756874154977183,
        1
      ],
      "name": "node_MeshObject-850006016-PolyPaper7",
      "extras": {
        "name": "node_MeshObject-850006016-PolyPaper7"
      },
      "mesh": 0
    },
    {
      "name": "model.gltf",
      "children": [
        0
      ]
    }
  ],
  "bufferViews": [
    {
      "buffer": 0,
      "byteOffset": 0,
      "byteLength": 145056,
      "target": 34962,
      "byteStride": 16
    },
    {
      "buffer": 0,
      "byteOffset": 145056,
      "byteLength": 108792,
      "target": 34962,
      "byteStride": 12
    },
    {
      "buffer": 0,
      "byteOffset": 253848,
      "byteLength": 108792,
      "target": 34962,
      "byteStride": 12
    },
    {
      "buffer": 0,
      "byteOffset": 362640,
      "byteLength": 21804,
      "target": 34963
    }
  ],
  "buffers": [
    {
      "byteLength": 384444,
      "uri": "data:application/octet-stream;base64,"
    }
  ],
  "accessors": [
    {
      "bufferView": 0,
      "componentType": 5126,
      "count": 9066,
      "max": [
        1,
        1,
        1,
        1
      ],
      "min": [
        0.006584956776350737,
        0.006584956776350737,
        0,
        1
      ],
      "type": "VEC4"
    },
    {
      "bufferView": 1,
      "componentType": 5126,
      "count": 9066,
      "max": [
        0.9986047148704529,
        0.9999574422836304,
        0.9982725381851196
      ],
      "min": [
        -0.9989993572235107,
        -0.9999574422836304,
        -0.9989756345748901
      ],
      "type": "VEC3"
    },
    {
      "bufferView": 2,
      "componentType": 5126,
      "count": 9066,
      "max": [
        0.08582369238138199,
        2.4405558109283447,
        -0.422391414642334
      ],
      "min": [
        -0.7573692798614502,
        1.5451158285140991,
        -1.5243608951568604
      ],
      "type": "VEC3"
    },
    {
      "bufferView": 3,
      "componentType": 5123,
      "count": 10902,
      "max": [
        9065
      ],
      "min": [
        0
      ],
      "type": "SCALAR"
    }
  ],
  "materials": [
    {
      "pbrMetallicRoughness": {
        "metallicFactor": 0,
        "roughnessFactor": 0.6
      },
      "name": "BlocksPaper"
    }
  ],
  "meshes": [
    {
      "primitives": [
        {
          "mode": 4,
          "attributes": {
            "COLOR_0": 0,
            "NORMAL": 1,
            "POSITION": 2
          },
          "indices": 3,
          "material": 0
        }
      ]
    }
  ]
}