<svg width="258" height="46" viewBox="0 0 258 46" fill="none" xmlns="http://www.w3.org/2000/svg">
<path d="M10.476 21.016C10.492 20.36 10.424 19.74 10.272 19.156C10.12 18.564 9.844 18.084 9.444 17.716C9.044 17.348 8.476 17.164 7.74 17.164C6.676 17.164 5.912 17.652 5.448 18.628C4.984 19.604 4.752 21.024 4.752 22.888C4.752 24.632 5.048 25.948 5.64 26.836C6.232 27.716 7.064 28.156 8.136 28.156C8.952 28.156 9.696 27.984 10.368 27.64C11.048 27.288 11.676 26.896 12.252 26.464C12.604 26.704 12.952 27.052 13.296 27.508C13.648 27.956 13.864 28.396 13.944 28.828C13.488 29.276 12.92 29.692 12.24 30.076C11.568 30.46 10.824 30.768 10.008 31C9.2 31.232 8.356 31.348 7.476 31.348C6.228 31.348 5.18 31.104 4.332 30.616C3.492 30.128 2.82 29.476 2.316 28.66C1.82 27.844 1.46 26.932 1.236 25.924C1.02 24.916 0.912 23.896 0.912 22.864C0.912 20.856 1.228 19.216 1.86 17.944C2.492 16.672 3.336 15.736 4.392 15.136C5.448 14.536 6.604 14.236 7.86 14.236C9.092 14.236 10.164 14.456 11.076 14.896C11.996 15.336 12.708 15.932 13.212 16.684C13.716 17.428 13.968 18.264 13.968 19.192C13.968 19.896 13.784 20.412 13.416 20.74C13.056 21.06 12.544 21.22 11.88 21.22C11.616 21.22 11.372 21.2 11.148 21.16C10.932 21.12 10.708 21.072 10.476 21.016ZM21.3456 24.088C21.2416 24.088 21.1136 24.088 20.9616 24.088C20.8096 24.08 20.6576 24.076 20.5056 24.076C20.3616 24.068 20.2336 24.064 20.1216 24.064C19.7616 24.064 19.3936 24.068 19.0176 24.076C18.6496 24.084 18.2856 24.088 17.9256 24.088V21.016C18.2856 21.016 18.6496 21.02 19.0176 21.028C19.3936 21.036 19.7616 21.04 20.1216 21.04C20.2336 21.04 20.3616 21.04 20.5056 21.04C20.6576 21.032 20.8096 21.028 20.9616 21.028C21.1136 21.02 21.2416 21.016 21.3456 21.016H24.2976C24.4096 21.016 24.5376 21.02 24.6816 21.028C24.8336 21.028 24.9816 21.032 25.1256 21.04C25.2776 21.04 25.4056 21.04 25.5096 21.04C25.8696 21.04 26.2376 21.036 26.6136 21.028C26.9896 21.02 27.3576 21.016 27.7176 21.016V24.088C27.3576 24.088 26.9896 24.084 26.6136 24.076C26.2376 24.068 25.8696 24.064 25.5096 24.064C25.4056 24.064 25.2776 24.068 25.1256 24.076C24.9816 24.076 24.8336 24.08 24.6816 24.088C24.5376 24.088 24.4096 24.088 24.2976 24.088H21.3456ZM20.1456 31C19.8496 31.056 19.5296 31.092 19.1856 31.108C18.8496 31.124 18.5576 31.132 18.3096 31.132C18.0856 31.132 17.7976 31.124 17.4456 31.108C17.0936 31.092 16.7696 31.056 16.4736 31V14.608C16.7696 14.552 17.0936 14.516 17.4456 14.5C17.7976 14.484 18.0856 14.476 18.3096 14.476C18.5576 14.476 18.8496 14.484 19.1856 14.5C19.5296 14.516 19.8496 14.552 20.1456 14.608V19.264C20.1456 19.6 20.1416 19.9 20.1336 20.164C20.1256 20.42 20.1216 20.712 20.1216 21.04V24.064C20.1216 24.384 20.1256 24.676 20.1336 24.94C20.1416 25.204 20.1456 25.504 20.1456 25.84V31ZM25.4856 25.84C25.4856 25.504 25.4896 25.204 25.4976 24.94C25.5056 24.676 25.5096 24.384 25.5096 24.064V21.04C25.5096 20.712 25.5056 20.42 25.4976 20.164C25.4896 19.9 25.4856 19.6 25.4856 19.264V14.608C25.7896 14.552 26.1096 14.516 26.4456 14.5C26.7816 14.484 27.0736 14.476 27.3216 14.476C27.5536 14.476 27.8456 14.484 28.1976 14.5C28.5496 14.516 28.8696 14.552 29.1576 14.608V31C28.8456 31.056 28.5336 31.092 28.2216 31.108C27.9096 31.124 27.6216 31.132 27.3576 31.132C27.1096 31.132 26.8136 31.124 26.4696 31.108C26.1256 31.092 25.7976 31.056 25.4856 31V25.84ZM36.5873 14.608C36.8833 14.568 37.2352 14.536 37.6432 14.512C38.0513 14.488 38.4073 14.476 38.7113 14.476C39.0073 14.476 39.3593 14.488 39.7673 14.512C40.1833 14.536 40.5353 14.576 40.8233 14.632L46.0193 30.76C45.7633 30.904 45.4353 31.012 45.0353 31.084C44.6353 31.164 44.2593 31.204 43.9073 31.204C43.3313 31.204 42.8793 31.072 42.5513 30.808C42.2233 30.536 41.9473 30.008 41.7233 29.224L39.8873 22.828C39.6953 22.148 39.4753 21.364 39.2273 20.476C38.9873 19.588 38.7713 18.756 38.5793 17.98H38.4353C38.3153 18.628 38.1393 19.372 37.9073 20.212C37.6833 21.044 37.4793 21.772 37.2953 22.396L34.7273 31.024C34.5033 31.08 34.2593 31.116 33.9953 31.132C33.7313 31.148 33.4593 31.156 33.1793 31.156C32.8993 31.156 32.5873 31.136 32.2433 31.096C31.8993 31.056 31.6193 30.996 31.4033 30.916L31.2713 30.724L36.5873 14.608ZM36.8033 27.496C36.6913 27.496 36.5553 27.496 36.3953 27.496C36.2353 27.488 36.0753 27.484 35.9153 27.484C35.7633 27.476 35.6313 27.472 35.5193 27.472H33.6113L34.7393 24.604H36.4073C36.5193 24.604 36.6513 24.604 36.8033 24.604C36.9553 24.596 37.1073 24.592 37.2593 24.592C37.4113 24.584 37.5393 24.58 37.6432 24.58H39.4793C39.5913 24.58 39.7233 24.584 39.8753 24.592C40.0273 24.592 40.1793 24.596 40.3313 24.604C40.4833 24.604 40.6153 24.604 40.7273 24.604H42.4553L43.3793 27.472H41.4833C41.3713 27.472 41.2353 27.476 41.0753 27.484C40.9153 27.484 40.7553 27.488 40.5953 27.496C40.4433 27.496 40.3113 27.496 40.1993 27.496H36.8033ZM59.7656 19.648C59.7656 20.416 59.6176 21.096 59.3216 21.688C59.0336 22.28 58.6616 22.776 58.2056 23.176C57.7576 23.568 57.2936 23.856 56.8136 24.04C57.2616 24.192 57.6336 24.464 57.9296 24.856C58.2256 25.248 58.4656 25.704 58.6496 26.224L59.4176 28.36C59.5536 28.752 59.7176 29.096 59.9096 29.392C60.1096 29.68 60.3336 29.924 60.5816 30.124C60.3576 30.436 60.0176 30.696 59.5616 30.904C59.1056 31.104 58.6376 31.204 58.1576 31.204C57.4936 31.204 57.0096 31.028 56.7056 30.676C56.4096 30.316 56.1376 29.784 55.8896 29.08L54.9776 26.476C54.8336 26.044 54.6136 25.676 54.3176 25.372C54.0296 25.06 53.5576 24.904 52.9016 24.904H50.2856V22.156C50.5976 22.14 50.9816 22.124 51.4376 22.108C51.9016 22.092 52.3416 22.08 52.7576 22.072C53.1736 22.056 53.4776 22.048 53.6696 22.048C54.3016 22.048 54.7856 21.936 55.1216 21.712C55.4656 21.48 55.7016 21.18 55.8296 20.812C55.9576 20.444 56.0216 20.056 56.0216 19.648C56.0216 19.216 55.9576 18.82 55.8296 18.46C55.7016 18.1 55.4656 17.812 55.1216 17.596C54.7856 17.372 54.3016 17.26 53.6696 17.26C53.5016 17.26 53.3136 17.26 53.1056 17.26C52.8976 17.26 52.6816 17.26 52.4576 17.26C52.2336 17.252 52.0056 17.244 51.7736 17.236V31C51.4696 31.056 51.1536 31.092 50.8256 31.108C50.4976 31.124 50.2056 31.132 49.9496 31.132C49.7256 31.132 49.4416 31.124 49.0976 31.108C48.7536 31.092 48.4336 31.056 48.1376 31V14.728L48.3056 14.572C49.3136 14.548 50.2856 14.528 51.2216 14.512C52.1576 14.488 53.0736 14.476 53.9696 14.476C55.0816 14.476 56.0736 14.66 56.9456 15.028C57.8176 15.388 58.5056 15.952 59.0096 16.72C59.5136 17.48 59.7656 18.456 59.7656 19.648ZM75.0197 15.976C74.9797 16.496 74.7877 17.008 74.4437 17.512C74.1077 18.008 73.7517 18.376 73.3757 18.616C72.7917 18.216 72.1517 17.896 71.4557 17.656C70.7597 17.416 70.0677 17.296 69.3797 17.296C68.5637 17.296 67.8517 17.492 67.2437 17.884C66.6357 18.268 66.1637 18.876 65.8277 19.708C65.4997 20.532 65.3357 21.608 65.3357 22.936C65.3357 24.84 65.6877 26.236 66.3917 27.124C67.1037 28.012 68.1237 28.456 69.4517 28.456C70.2357 28.456 70.9477 28.384 71.5877 28.24C72.2277 28.088 72.7477 27.948 73.1477 27.82L75.0677 30.352C74.6037 30.512 74.0477 30.668 73.3997 30.82C72.7517 30.972 72.0397 31.096 71.2637 31.192C70.4877 31.296 69.6717 31.348 68.8157 31.348C67.5757 31.348 66.4997 31.148 65.5877 30.748C64.6837 30.348 63.9357 29.78 63.3437 29.044C62.7517 28.3 62.3117 27.412 62.0237 26.38C61.7357 25.34 61.5917 24.184 61.5917 22.912C61.5917 21.448 61.8037 20.176 62.2277 19.096C62.6517 18.008 63.2237 17.108 63.9437 16.396C64.6637 15.676 65.4757 15.14 66.3797 14.788C67.2837 14.436 68.2157 14.26 69.1757 14.26C70.2637 14.26 71.3077 14.42 72.3077 14.74C73.3157 15.052 74.2197 15.464 75.0197 15.976ZM71.6237 26.488C71.6237 25.92 71.6437 25.328 71.6837 24.712C71.7237 24.096 71.8157 23.532 71.9597 23.02L75.0677 24.052V30.352L71.6237 30.4V26.488ZM72.6317 21.784C73.5517 21.784 74.1877 21.996 74.5397 22.42C74.8917 22.836 75.0677 23.38 75.0677 24.052V24.844H70.3757C69.9917 24.844 69.6677 24.796 69.4037 24.7C69.1397 24.604 68.9397 24.444 68.8037 24.22C68.6757 23.996 68.6117 23.692 68.6117 23.308C68.6117 23.06 68.6357 22.8 68.6837 22.528C68.7397 22.256 68.8037 22.008 68.8757 21.784H72.6317ZM78.2074 14.776L78.3754 14.608H81.8074V17.62C81.8074 17.956 81.8114 18.252 81.8194 18.508C81.8274 18.764 81.8314 19.056 81.8314 19.384V26.368C81.8314 26.664 81.8274 26.936 81.8194 27.184C81.8114 27.432 81.8074 27.712 81.8074 28.024V31.06H80.3074C79.6514 31.06 79.1354 30.868 78.7594 30.484C78.3914 30.1 78.2074 29.576 78.2074 28.912V14.776ZM87.2194 21.268C87.2914 21.492 87.3434 21.748 87.3754 22.036C87.4154 22.316 87.4354 22.556 87.4354 22.756C87.4354 22.964 87.4154 23.208 87.3754 23.488C87.3434 23.76 87.2914 24.012 87.2194 24.244H83.4394C83.2394 24.244 82.9594 24.244 82.5994 24.244C82.2474 24.236 81.8834 24.228 81.5074 24.22C81.1394 24.212 80.8274 24.208 80.5714 24.208V21.304C80.8274 21.296 81.1394 21.292 81.5074 21.292C81.8834 21.284 82.2474 21.28 82.5994 21.28C82.9594 21.272 83.2394 21.268 83.4394 21.268H87.2194ZM88.6234 14.608C88.6794 14.88 88.7154 15.136 88.7314 15.376C88.7474 15.616 88.7554 15.84 88.7554 16.048C88.7554 16.256 88.7274 16.512 88.6714 16.816C88.6234 17.112 88.5514 17.4 88.4554 17.68H83.4394C83.2394 17.68 82.9594 17.68 82.5994 17.68C82.2474 17.672 81.8834 17.664 81.5074 17.656C81.1394 17.648 80.8274 17.64 80.5714 17.632V14.608H88.6234ZM89.2114 27.988C89.2114 29.004 89.0514 29.772 88.7314 30.292C88.4114 30.804 87.7674 31.06 86.7994 31.06H80.5714V28.108C81.0674 28.084 81.5434 28.06 81.9994 28.036C82.4634 28.004 82.9834 27.988 83.5594 27.988H89.2114ZM91.4738 29.416C91.4738 29.272 91.4938 29.052 91.5338 28.756C91.5738 28.452 91.6458 28.2 91.7498 28C91.9818 27.864 92.2658 27.76 92.6018 27.688C92.9458 27.608 93.2698 27.568 93.5738 27.568C93.8778 27.568 94.2018 27.608 94.5458 27.688C94.8978 27.76 95.1858 27.864 95.4098 28C95.5058 28.2 95.5738 28.452 95.6138 28.756C95.6538 29.052 95.6738 29.272 95.6738 29.416C95.6738 29.56 95.6538 29.78 95.6138 30.076C95.5738 30.372 95.5058 30.624 95.4098 30.832C95.1858 30.968 94.8978 31.072 94.5458 31.144C94.2018 31.216 93.8778 31.252 93.5738 31.252C93.2698 31.252 92.9458 31.216 92.6018 31.144C92.2658 31.072 91.9818 30.968 91.7498 30.832C91.6458 30.624 91.5738 30.372 91.5338 30.076C91.4938 29.78 91.4738 29.56 91.4738 29.416ZM91.4738 21.94C91.4738 21.796 91.4938 21.576 91.5338 21.28C91.5738 20.976 91.6458 20.724 91.7498 20.524C91.9818 20.388 92.2658 20.284 92.6018 20.212C92.9458 20.132 93.2698 20.092 93.5738 20.092C93.8778 20.092 94.2018 20.132 94.5458 20.212C94.8978 20.284 95.1858 20.388 95.4098 20.524C95.5058 20.724 95.5738 20.976 95.6138 21.28C95.6538 21.576 95.6738 21.796 95.6738 21.94C95.6738 22.084 95.6538 22.304 95.6138 22.6C95.5738 22.896 95.5058 23.148 95.4098 23.356C95.1858 23.492 94.8978 23.596 94.5458 23.668C94.2018 23.74 93.8778 23.776 93.5738 23.776C93.2698 23.776 92.9458 23.74 92.6018 23.668C92.2658 23.596 91.9818 23.492 91.7498 23.356C91.6458 23.148 91.5738 22.896 91.5338 22.6C91.4938 22.304 91.4738 22.084 91.4738 21.94Z" fill="#72A9C1"/>
<rect x="102.5" y="13.5" width="11" height="19" rx="1.5" fill="#F9F56D" stroke="#30404A"/>
<rect x="118.5" y="13.5" width="11" height="19" rx="1.5" fill="#F9F56D" stroke="#30404A"/>
<rect x="134.5" y="13.5" width="11" height="19" rx="1.5" fill="#F9F56D" stroke="#30404A"/>
<rect x="150.5" y="13.5" width="11" height="19" rx="1.5" fill="#F9F56D" stroke="#30404A"/>
<rect x="166.5" y="13.5" width="11" height="19" rx="1.5" fill="#F9F56D" stroke="#30404A"/>
<rect x="182.5" y="13.5" width="11" height="19" rx="1.5" fill="#72A9C1" stroke="#30404A"/>
<rect x="198.5" y="13.5" width="11" height="19" rx="1.5" fill="#72A9C1" stroke="#30404A"/>
<rect x="214.5" y="13.5" width="11" height="19" rx="1.5" fill="#72A9C1" stroke="#30404A"/>
<rect x="230.5" y="13.5" width="11" height="19" rx="1.5" fill="#72A9C1" stroke="#30404A"/>
<rect x="246.5" y="13.5" width="11" height="19" rx="1.5" fill="#72A9C1" stroke="#30404A"/>
</svg>
