<svg width="132" height="86" viewBox="0 0 132 86" fill="none" xmlns="http://www.w3.org/2000/svg">
<path d="M1.77905 47.7264C1.77905 47.6676 1.82684 47.6198 1.88579 47.6198H38.3192C38.3782 47.6198 38.4259 47.6676 38.4259 47.7264V84.1165C38.4259 84.1754 38.3782 84.2231 38.3192 84.2231H1.88579C1.82684 84.2231 1.77905 84.1754 1.77905 84.1165V47.7264Z" fill="#F2F3F5"/>
<path d="M37.5365 83.5124V66.0992C37.5365 85.2892 8.53916 82.8016 1.77905 82.8016V83.5124H37.5365Z" fill="#E4E5E7"/>
<path fill-rule="evenodd" clip-rule="evenodd" d="M0 51.9132C0 48.5607 2.72098 45.843 6.07748 45.843H34.1274C37.4839 45.843 40.2048 48.5607 40.2048 51.9132V79.9297C40.2048 83.2822 37.4839 86 34.1274 86H6.07748C2.72098 86 0 83.2822 0 79.9297V51.9132ZM6.07748 48.6446C4.27013 48.6446 2.80499 50.108 2.80499 51.9132V79.9297C2.80499 81.7349 4.27013 83.1983 6.07748 83.1983H34.1274C35.9347 83.1983 37.3998 81.7349 37.3998 79.9297V51.9132C37.3998 50.108 35.9347 48.6446 34.1274 48.6446H6.07748Z" fill="#595A5C"/>
<path d="M20.5356 60.5909L10.496 65.9216L20.5356 71.2521L20.5356 67.3741L30.0647 67.3741L30.0647 64.4691L20.5356 64.4691L20.5356 60.5909Z" fill="#595A5C"/>
<path d="M47.6765 47.7264C47.6765 47.6676 47.7243 47.6198 47.7833 47.6198H84.2167C84.2756 47.6198 84.3234 47.6676 84.3234 47.7264V84.1165C84.3234 84.1754 84.2756 84.2231 84.2167 84.2231H47.7833C47.7243 84.2231 47.6765 84.1754 47.6765 84.1165V47.7264Z" fill="#F2F3F5"/>
<path d="M83.4339 83.5124V66.0992C83.4339 85.2892 54.4366 82.8016 47.6765 82.8016V83.5124H83.4339Z" fill="#E4E5E7"/>
<path fill-rule="evenodd" clip-rule="evenodd" d="M45.8975 51.9132C45.8975 48.5607 48.6184 45.843 51.9749 45.843H80.0248C83.3813 45.843 86.1023 48.5607 86.1023 51.9132V79.9297C86.1023 83.2822 83.3813 86 80.0248 86H51.9749C48.6184 86 45.8975 83.2822 45.8975 79.9297V51.9132ZM51.9749 48.6446C50.1676 48.6446 48.7024 50.108 48.7024 51.9132V79.9297C48.7024 81.7349 50.1676 83.1983 51.9749 83.1983H80.0248C81.8322 83.1983 83.2973 81.7349 83.2973 79.9297V51.9132C83.2973 50.108 81.8322 48.6446 80.0248 48.6446H51.9749Z" fill="#595A5C"/>
<path d="M60.8409 65.6665L66.178 75.6942L71.5148 65.6665L67.6321 65.6665L67.6321 56.1488L64.7237 56.1488L64.7237 65.6665L60.8409 65.6665Z" fill="#595A5C"/>
<path d="M47.6765 47.7264C47.6765 47.6676 47.7243 47.6198 47.7833 47.6198H84.2167C84.2756 47.6198 84.3234 47.6676 84.3234 47.7264V84.1165C84.3234 84.1754 84.2756 84.2231 84.2167 84.2231H47.7833C47.7243 84.2231 47.6765 84.1754 47.6765 84.1165V47.7264Z" fill="#F2F3F5"/>
<path d="M83.4339 83.5124V66.0992C83.4339 85.2892 54.4366 82.8016 47.6765 82.8016V83.5124H83.4339Z" fill="#E4E5E7"/>
<path fill-rule="evenodd" clip-rule="evenodd" d="M45.8975 51.9132C45.8975 48.5607 48.6184 45.843 51.9749 45.843H80.0248C83.3813 45.843 86.1023 48.5607 86.1023 51.9132V79.9297C86.1023 83.2822 83.3813 86 80.0248 86H51.9749C48.6184 86 45.8975 83.2822 45.8975 79.9297V51.9132ZM51.9749 48.6446C50.1676 48.6446 48.7024 50.108 48.7024 51.9132V79.9297C48.7024 81.7349 50.1676 83.1983 51.9749 83.1983H80.0248C81.8322 83.1983 83.2973 81.7349 83.2973 79.9297V51.9132C83.2973 50.108 81.8322 48.6446 80.0248 48.6446H51.9749Z" fill="#595A5C"/>
<path d="M60.8409 65.6665L66.178 75.6942L71.5148 65.6665L67.6321 65.6665L67.6321 56.1488L64.7237 56.1488L64.7237 65.6665L60.8409 65.6665Z" fill="#595A5C"/>
<path d="M47.6765 1.88347C47.6765 1.82459 47.7243 1.77686 47.7833 1.77686H84.2167C84.2756 1.77686 84.3234 1.82459 84.3234 1.88347V38.2735C84.3234 38.3324 84.2756 38.3802 84.2167 38.3802H47.7833C47.7243 38.3802 47.6765 38.3324 47.6765 38.2735V1.88347Z" fill="#F2F3F5"/>
<path d="M83.4339 37.6694V20.2562C83.4339 39.4463 54.4366 36.9587 47.6765 36.9587V37.6694H83.4339Z" fill="#E4E5E7"/>
<path fill-rule="evenodd" clip-rule="evenodd" d="M45.8975 6.07025C45.8975 2.71774 48.6184 0 51.9749 0H80.0248C83.3813 0 86.1023 2.71774 86.1023 6.07025V34.0868C86.1023 37.4393 83.3813 40.157 80.0248 40.157H51.9749C48.6184 40.157 45.8975 37.4393 45.8975 34.0868V6.07025ZM51.9749 2.80165C50.1676 2.80165 48.7024 4.26505 48.7024 6.07025V34.0868C48.7024 35.892 50.1676 37.3554 51.9749 37.3554H80.0248C81.8322 37.3554 83.2973 35.892 83.2973 34.0868V6.07025C83.2973 4.26505 81.8322 2.80165 80.0248 2.80165H51.9749Z" fill="#595A5C"/>
<path d="M71.5147 20.3335L66.1776 10.3058L60.8408 20.3335L64.7234 20.3335L64.7234 29.8512L67.6319 29.8512L67.6319 20.3335L71.5147 20.3335Z" fill="#595A5C"/>
<path d="M93.5741 47.7264C93.5741 47.6676 93.6219 47.6198 93.6808 47.6198H130.114C130.173 47.6198 130.221 47.6676 130.221 47.7264V84.1165C130.221 84.1754 130.173 84.2231 130.114 84.2231H93.6808C93.6219 84.2231 93.5741 84.1754 93.5741 84.1165V47.7264Z" fill="#F2F3F5"/>
<path d="M129.331 83.5124V66.0992C129.331 85.2892 100.334 82.8016 93.5741 82.8016V83.5124H129.331Z" fill="#E4E5E7"/>
<path fill-rule="evenodd" clip-rule="evenodd" d="M91.7952 51.9132C91.7952 48.5607 94.5161 45.843 97.8726 45.843H125.923C129.279 45.843 132 48.5607 132 51.9132V79.9297C132 83.2822 129.279 86 125.923 86H97.8726C94.5161 86 91.7952 83.2822 91.7952 79.9297V51.9132ZM97.8726 48.6446C96.0653 48.6446 94.6002 50.108 94.6002 51.9132V79.9297C94.6002 81.7349 96.0653 83.1983 97.8726 83.1983H125.923C127.73 83.1983 129.195 81.7349 129.195 79.9297V51.9132C129.195 50.108 127.73 48.6446 125.923 48.6446H97.8726Z" fill="#595A5C"/>
<path d="M111.82 71.2521L121.86 65.9214L111.82 60.5909L111.82 64.4689L102.291 64.4689L102.291 67.3739L111.82 67.3739L111.82 71.2521Z" fill="#595A5C"/>
</svg>
