<svg width="161" height="40" viewBox="0 0 161 40" fill="none" xmlns="http://www.w3.org/2000/svg">
<path d="M1.41602 1.87611C1.41602 1.81746 1.46356 1.76991 1.52221 1.76991H84.9515C85.0102 1.76991 85.0577 1.81746 85.0577 1.87611V38.1239C85.0577 38.1825 85.0102 38.2301 84.9515 38.2301H1.52221C1.46356 38.2301 1.41602 38.1825 1.41602 38.1239V1.87611Z" fill="#F2F3F5"/>
<path d="M57.387 17.6922V18.9616H53.4669V17.6922H57.387ZM54.4376 16.0309H56.2296V22.3963C56.2296 22.5913 56.2545 22.7406 56.3043 22.8443C56.3582 22.948 56.4371 23.0206 56.5408 23.0621C56.6445 23.0994 56.7751 23.1181 56.9328 23.1181C57.0448 23.1181 57.1443 23.114 57.2314 23.1057C57.3227 23.0932 57.3994 23.0808 57.4617 23.0683L57.4679 24.3875C57.3144 24.4372 57.1485 24.4766 56.9701 24.5057C56.7917 24.5347 56.5947 24.5492 56.379 24.5492C55.9849 24.5492 55.6406 24.4849 55.3461 24.3564C55.0557 24.2236 54.8317 24.012 54.6741 23.7217C54.5164 23.4313 54.4376 23.0497 54.4376 22.5768V16.0309Z" fill="#595A5C"/>
<path d="M51.3595 24.4248H49.555V17.0949C49.555 16.5846 49.6546 16.1553 49.8537 15.8068C50.057 15.4542 50.3411 15.1887 50.7062 15.0104C51.0753 14.8278 51.513 14.7366 52.0191 14.7366C52.185 14.7366 52.3447 14.749 52.4982 14.7739C52.6517 14.7947 52.801 14.8216 52.9462 14.8548L52.9275 16.2051C52.8487 16.1843 52.7658 16.1698 52.6786 16.1615C52.5915 16.1532 52.4899 16.1491 52.3737 16.1491C52.158 16.1491 51.9734 16.1864 51.82 16.2611C51.6706 16.3316 51.5565 16.4374 51.4777 16.5784C51.3989 16.7194 51.3595 16.8916 51.3595 17.0949V24.4248ZM52.7035 17.6922V18.9616H48.5532V17.6922H52.7035Z" fill="#595A5C"/>
<path d="M47.1489 17.6922V24.4248H45.3506V17.6922H47.1489ZM45.2386 15.9375C45.2386 15.6762 45.3299 15.4605 45.5124 15.2904C45.695 15.1203 45.9397 15.0353 46.2467 15.0353C46.5495 15.0353 46.7922 15.1203 46.9747 15.2904C47.1614 15.4605 47.2547 15.6762 47.2547 15.9375C47.2547 16.1988 47.1614 16.4145 46.9747 16.5846C46.7922 16.7547 46.5495 16.8397 46.2467 16.8397C45.9397 16.8397 45.695 16.7547 45.5124 16.5846C45.3299 16.4145 45.2386 16.1988 45.2386 15.9375Z" fill="#595A5C"/>
<path d="M39.4165 14.8673V24.4248H37.6245V14.8673H39.4165ZM39.1614 20.822H38.6699C38.674 20.3533 38.7362 19.9219 38.8565 19.5278C38.9768 19.1296 39.149 18.7853 39.373 18.4949C39.597 18.2004 39.8646 17.9722 40.1757 17.8104C40.4909 17.6487 40.8394 17.5678 41.221 17.5678C41.5529 17.5678 41.8536 17.6155 42.1233 17.7109C42.3971 17.8021 42.6314 17.9515 42.8264 18.1589C43.0255 18.3621 43.179 18.6297 43.2868 18.9616C43.3947 19.2934 43.4486 19.6958 43.4486 20.1687V24.4248H41.6441V20.1563C41.6441 19.8576 41.6006 19.6232 41.5135 19.4531C41.4305 19.2789 41.3081 19.1565 41.1464 19.086C40.9887 19.0113 40.7938 18.974 40.5615 18.974C40.3043 18.974 40.0844 19.0217 39.9019 19.1171C39.7235 19.2125 39.5804 19.3453 39.4725 19.5154C39.3647 19.6813 39.2859 19.8763 39.2361 20.1003C39.1863 20.3243 39.1614 20.5649 39.1614 20.822Z" fill="#595A5C"/>
<path d="M34.198 22.0541C34.198 21.8923 34.1731 21.7471 34.1234 21.6185C34.0777 21.4858 33.9906 21.3655 33.862 21.2576C33.7334 21.1456 33.553 21.0357 33.3207 20.9278C33.0884 20.82 32.7876 20.708 32.4184 20.5918C32.0078 20.4591 31.6178 20.3098 31.2486 20.1438C30.8836 19.9779 30.56 19.785 30.278 19.5651C30 19.3411 29.7802 19.0819 29.6184 18.7874C29.4608 18.4928 29.3819 18.1506 29.3819 17.7607C29.3819 17.3832 29.4649 17.0409 29.6308 16.734C29.7968 16.4229 30.0291 16.1574 30.3277 15.9375C30.6264 15.7135 30.979 15.5414 31.3855 15.4211C31.7962 15.3008 32.2463 15.2406 32.7358 15.2406C33.4036 15.2406 33.9865 15.3609 34.4843 15.6015C34.982 15.8421 35.3678 16.1719 35.6416 16.5909C35.9195 17.0098 36.0585 17.489 36.0585 18.0282H34.2043C34.2043 17.7627 34.1483 17.5304 34.0362 17.3313C33.9284 17.1281 33.7625 16.9684 33.5385 16.8522C33.3186 16.7361 33.0407 16.678 32.7047 16.678C32.3811 16.678 32.1115 16.7278 31.8958 16.8273C31.6801 16.9227 31.5183 17.0534 31.4104 17.2193C31.3026 17.3811 31.2486 17.5636 31.2486 17.7669C31.2486 17.9204 31.286 18.0593 31.3606 18.1838C31.4395 18.3082 31.5556 18.4244 31.7091 18.5322C31.8626 18.6401 32.0513 18.7417 32.2753 18.8371C32.4993 18.9325 32.7586 19.0259 33.0531 19.1171C33.5468 19.2665 33.9802 19.4345 34.3536 19.6211C34.7311 19.8078 35.0463 20.0173 35.2994 20.2496C35.5524 20.4819 35.7432 20.7453 35.8718 21.0398C36.0004 21.3344 36.0647 21.6683 36.0647 22.0416C36.0647 22.4357 35.988 22.7883 35.8345 23.0994C35.681 23.4106 35.4591 23.674 35.1687 23.8897C34.8783 24.1054 34.532 24.2692 34.1296 24.3812C33.7272 24.4932 33.2771 24.5492 32.7793 24.5492C32.3313 24.5492 31.8895 24.4912 31.454 24.375C31.0184 24.2547 30.6223 24.0743 30.2655 23.8337C29.9129 23.5931 29.6308 23.2861 29.4193 22.9128C29.2077 22.5394 29.1019 22.0976 29.1019 21.5874H30.9749C30.9749 21.8695 31.0184 22.108 31.1055 22.303C31.1926 22.4979 31.315 22.6556 31.4726 22.7759C31.6344 22.8962 31.8252 22.9833 32.0451 23.0372C32.2691 23.0911 32.5138 23.1181 32.7793 23.1181C33.1029 23.1181 33.3684 23.0725 33.5758 22.9812C33.7874 22.89 33.9429 22.7634 34.0425 22.6017C34.1462 22.4399 34.198 22.2573 34.198 22.0541Z" fill="#595A5C"/>
<path d="M84.4515 38.2301V20.177C84.4515 40.0723 52.0116 37.4932 44.449 37.4932V38.2301H84.4515Z" fill="#E4E5E7"/>
<path fill-rule="evenodd" clip-rule="evenodd" d="M0 6.0177C0 2.69422 2.69422 0 6.0177 0H81.062C84.3854 0 87.0797 2.69421 87.0797 6.0177V33.9823C87.0797 37.3058 84.3854 40 81.062 40H6.0177C2.69422 40 0 37.3058 0 33.9823V6.0177ZM6.0177 2.83186C4.25821 2.83186 2.83186 4.25821 2.83186 6.0177V33.9823C2.83186 35.7418 4.25821 37.1681 6.0177 37.1681H81.062C82.8214 37.1681 84.2478 35.7418 84.2478 33.9823V6.0177C84.2478 4.25821 82.8214 2.83186 81.062 2.83186H6.0177Z" fill="#595A5C"/>
<path d="M120.08 0.495237C120.08 0.432119 120.131 0.380951 120.194 0.380951H159.678C159.741 0.380951 159.792 0.432118 159.792 0.495237V39.5048C159.792 39.5679 159.741 39.619 159.678 39.619H120.194C120.131 39.619 120.08 39.5679 120.08 39.5048V0.495237Z" fill="#F2F3F5"/>
<path d="M143.62 23.1949V24.7619H136.71V23.1949H143.62ZM143.52 16.1302L137.6 24.7619H136.187V23.6101L142.154 15.0119H143.52V16.1302ZM142.83 15.0119V16.5856H136.194V15.0119H142.83Z" fill="#595A5C"/>
<path d="M159.504 39.619V20.1905C159.504 41.6016 144.102 38.826 140.511 38.826V39.619H159.504Z" fill="#E4E5E7"/>
<path fill-rule="evenodd" clip-rule="evenodd" d="M155.127 3.04762H125.032C123.98 3.04762 123.127 3.90041 123.127 4.95238V35.0476C123.127 36.0996 123.98 36.9524 125.032 36.9524H155.127C156.179 36.9524 157.032 36.0996 157.032 35.0476V4.95238C157.032 3.90041 156.179 3.04762 155.127 3.04762ZM125.032 0C122.297 0 120.08 2.21726 120.08 4.95238V35.0476C120.08 37.7827 122.297 40 125.032 40H155.127C157.862 40 160.08 37.7827 160.08 35.0476V4.95238C160.08 2.21726 157.862 0 155.127 0H125.032Z" fill="#595A5C"/>
<path d="M107.681 10.9375L101.423 29.4648H98.9155L105.173 10.9375H107.681Z" fill="#595A5C"/>
</svg>
