{
  "asset": {
    "version": "2.0",
    "generator": "THREE.GLTFExporter"
  },
  "scenes": [
    {
      "nodes": [
        2
      ],
      "name": "Scene"
    }
  ],
  "scene": 0,
  "nodes": [
    {
      "matrix": [
        1,
        0,
        0,
        0,
        0,
        1,
        0,
        0,
        0,
        0,
        1,
        0,
        0.2780246336516358,
        -1.4934209717366755,
        0.7882778679738911,
        1
      ],
      "name": "node_MeshObject992142336-PolyPaper21",
      "extras": {
        "name": "node_MeshObject992142336-PolyPaper21"
      },
      "mesh": 0
    },
    {
      "matrix": [
        2.220446049250313e-16,
        1,
        0,
        0,
        -1,
        2.220446049250313e-16,
        0,
        0,
        0,
        0,
        1,
        0,
        0,
        0,
        0,
        1
      ],
      "name": "modelgltf",
      "extras": {
        "name": "model.gltf"
      },
      "children": [
        0
      ]
    },
    {
      "name": "model2.gltf",
      "children": [
        1
      ]
    }
  ],
  "bufferViews": [
    {
      "buffer": 0,
      "byteOffset": 0,
      "byteLength": 11136,
      "target": 34962,
      "byteStride": 16
    },
    {
      "buffer": 0,
      "byteOffset": 11136,
      "byteLength": 8352,
      "target": 34962,
      "byteStride": 12
    },
    {
      "buffer": 0,
      "byteOffset": 19488,
      "byteLength": 8352,
      "target": 34962,
      "byteStride": 12
    },
    {
      "buffer": 0,
      "byteOffset": 27840,
      "byteLength": 1800,
      "target": 34963
    }
  ],
  "buffers": [
    {
      "byteLength": 29640,
      "uri": "data:application/octet-stream;base64,"
    }
  ],
  "accessors": [
    {
      "bufferView": 0,
      "componentType": 5126,
      "count": 696,
      "max": [
        0.9075471758842468,
        0.10114516317844391,
        0.12752977013587952,
        1
      ],
      "min": [
        0.05637409910559654,
        0.05284162983298302,
        0.0328759141266346,
        1
      ],
      "type": "VEC4"
    },
    {
      "bufferView": 1,
      "componentType": 5126,
      "count": 696,
      "max": [
        0.9659262299537659,
        1,
        0.9684742093086243
      ],
      "min": [
        -0.9686580896377563,
        -1,
        -0.9684749245643616
      ],
      "type": "VEC3"
    },
    {
      "bufferView": 2,
      "componentType": 5126,
      "count": 696,
      "max": [
        -0.1971321702003479,
        1.5500316619873047,
        -0.7069976925849915
      ],
      "min": [
        -0.3610035181045532,
        1.4300317764282227,
        -0.871015727519989
      ],
      "type": "VEC3"
    },
    {
      "bufferView": 3,
      "componentType": 5123,
      "count": 900,
      "max": [
        695
      ],
      "min": [
        0
      ],
      "type": "SCALAR"
    }
  ],
  "materials": [
    {
      "pbrMetallicRoughness": {
        "metallicFactor": 0,
        "roughnessFactor": 0.6
      },
      "name": "BlocksPaper"
    }
  ],
  "meshes": [
    {
      "primitives": [
        {
          "mode": 4,
          "attributes": {
            "COLOR_0": 0,
            "NORMAL": 1,
            "POSITION": 2
          },
          "indices": 3,
          "material": 0
        }
      ]
    }
  ]
}