{
  "asset": {
    "version": "2.0",
    "generator": "THREE.GLTFExporter"
  },
  "scenes": [
    {
      "nodes": [
        1
      ],
      "name": "Scene"
    }
  ],
  "scene": 0,
  "nodes": [
    {
      "name": "node_MeshObject-2122254336-PolyPaper21",
      "extras": {
        "name": "node_MeshObject-2122254336-PolyPaper21"
      },
      "mesh": 0
    },
    {
      "matrix": [
        1,
        0,
        0,
        0,
        0,
        1,
        0,
        0,
        0,
        0,
        1,
        0,
        0.64,
        -1.9,
        1.82,
        1
      ],
      "name": "model.gltf",
      "children": [
        0
      ]
    }
  ],
  "bufferViews": [
    {
      "buffer": 0,
      "byteOffset": 0,
      "byteLength": 232032,
      "target": 34962,
      "byteStride": 16
    },
    {
      "buffer": 0,
      "byteOffset": 232032,
      "byteLength": 174024,
      "target": 34962,
      "byteStride": 12
    },
    {
      "buffer": 0,
      "byteOffset": 406056,
      "byteLength": 174024,
      "target": 34962,
      "byteStride": 12
    },
    {
      "buffer": 0,
      "byteOffset": 580080,
      "byteLength": 46932,
      "target": 34963
    }
  ],
  "buffers": [
    {
      "byteLength": 627012,
      "uri": "data:application/octet-stream;base64,"
    }
  ],
  "accessors": [
    {
      "bufferView": 0,
      "componentType": 5126,
      "count": 14502,
      "max": [
        1,
        1,
        1,
        1
      ],
      "min": [
        0.006584956776350737,
        0.006584956776350737,
        0.006584956776350737,
        1
      ],
      "type": "VEC4"
    },
    {
      "bufferView": 1,
      "componentType": 5126,
      "count": 14502,
      "max": [
        0.9990733861923218,
        0.999289333820343,
        0.9997514486312866
      ],
      "min": [
        -0.9993999004364014,
        -0.9992892742156982,
        -0.9997514486312866
      ],
      "type": "VEC3"
    },
    {
      "bufferView": 2,
      "componentType": 5126,
      "count": 14502,
      "max": [
        0.14364013075828552,
        2.452288866043091,
        -0.6930188536643982
      ],
      "min": [
        -1.5954053401947021,
        1.3999502658843994,
        -3.0051774978637695
      ],
      "type": "VEC3"
    },
    {
      "bufferView": 3,
      "componentType": 5123,
      "count": 23466,
      "max": [
        14501
      ],
      "min": [
        0
      ],
      "type": "SCALAR"
    }
  ],
  "materials": [
    {
      "pbrMetallicRoughness": {
        "metallicFactor": 0,
        "roughnessFactor": 0.6
      },
      "name": "BlocksPaper"
    }
  ],
  "meshes": [
    {
      "primitives": [
        {
          "mode": 4,
          "attributes": {
            "COLOR_0": 0,
            "NORMAL": 1,
            "POSITION": 2
          },
          "indices": 3,
          "material": 0
        }
      ]
    }
  ]
}