{
  "asset": {
    "version": "2.0",
    "generator": "THREE.GLTFExporter"
  },
  "scenes": [
    {
      "nodes": [
        2
      ],
      "name": "Scene"
    }
  ],
  "scene": 0,
  "nodes": [
    {
      "matrix": [
        1,
        0,
        0,
        0,
        0,
        1.0000000000000002,
        0,
        0,
        0,
        0,
        1.0000000000000002,
        0,
        0,
        0,
        0,
        1
      ],
      "name": "node_MeshObject-770160896-PolyGlass24",
      "extras": {
        "name": "node_MeshObject-770160896-PolyGlass24"
      },
      "mesh": 0
    },
    {
      "matrix": [
        0.9,
        0,
        0,
        0,
        0,
        0.9,
        0,
        0,
        0,
        0,
        0.9,
        0,
        0.0187897247844499,
        0.06619427507155595,
        0.05537214593609574,
        1
      ],
      "name": "node_MeshObject-251440832-PolyPaper13",
      "extras": {
        "name": "node_MeshObject-251440832-PolyPaper13"
      },
      "mesh": 1
    },
    {
      "matrix": [
        1,
        0,
        0,
        0,
        0,
        1,
        0,
        0,
        0,
        0,
        1,
        0,
        -0.19161274145164447,
        -0.6291970506627769,
        -0.584367721158942,
        1
      ],
      "name": "model.gltf",
      "children": [
        0,
        1
      ]
    }
  ],
  "bufferViews": [
    {
      "buffer": 0,
      "byteOffset": 0,
      "byteLength": 6528,
      "target": 34962,
      "byteStride": 16
    },
    {
      "buffer": 0,
      "byteOffset": 6528,
      "byteLength": 4896,
      "target": 34962,
      "byteStride": 12
    },
    {
      "buffer": 0,
      "byteOffset": 11424,
      "byteLength": 4896,
      "target": 34962,
      "byteStride": 12
    },
    {
      "buffer": 0,
      "byteOffset": 16320,
      "byteLength": 1152,
      "target": 34963
    },
    {
      "buffer": 0,
      "byteOffset": 17472,
      "byteLength": 6528,
      "target": 34962,
      "byteStride": 16
    },
    {
      "buffer": 0,
      "byteOffset": 24000,
      "byteLength": 4896,
      "target": 34962,
      "byteStride": 12
    },
    {
      "buffer": 0,
      "byteOffset": 28896,
      "byteLength": 4896,
      "target": 34962,
      "byteStride": 12
    },
    {
      "buffer": 0,
      "byteOffset": 33792,
      "byteLength": 1152,
      "target": 34963
    }
  ],
  "buffers": [
    {
      "byteLength": 34944,
      "uri": "data:application/octet-stream;base64,"
    }
  ],
  "accessors": [
    {
      "bufferView": 0,
      "componentType": 5126,
      "count": 408,
      "max": [
        0.6800203323364258,
        0.6800203323364258,
        0.6800203323364258,
        0.250980406999588
      ],
      "min": [
        0.6800203323364258,
        0.6800203323364258,
        0.6800203323364258,
        0.250980406999588
      ],
      "type": "VEC4"
    },
    {
      "bufferView": 1,
      "componentType": 5126,
      "count": 408,
      "max": [
        0.9795448184013367,
        0.9987596273422241,
        0.9738678932189941
      ],
      "min": [
        -0.9795448184013367,
        -0.9987596869468689,
        -0.9738678932189941
      ],
      "type": "VEC3"
    },
    {
      "bufferView": 2,
      "componentType": 5126,
      "count": 408,
      "max": [
        0.3143622577190399,
        0.7496530413627625,
        0.7014613151550293
      ],
      "min": [
        0.07527967542409897,
        0.5123928189277649,
        0.4609248638153076
      ],
      "type": "VEC3"
    },
    {
      "bufferView": 3,
      "componentType": 5123,
      "count": 576,
      "max": [
        407
      ],
      "min": [
        0
      ],
      "type": "SCALAR"
    },
    {
      "bufferView": 4,
      "componentType": 5126,
      "count": 408,
      "max": [
        1,
        0.3203815817832947,
        0,
        1
      ],
      "min": [
        1,
        0.3203815817832947,
        0,
        1
      ],
      "type": "VEC4"
    },
    {
      "bufferView": 5,
      "componentType": 5126,
      "count": 408,
      "max": [
        0.9872762560844421,
        0.9993745684623718,
        0.9773144721984863
      ],
      "min": [
        -0.9872762560844421,
        -0.9993745684623718,
        -0.977314293384552
      ],
      "type": "VEC3"
    },
    {
      "bufferView": 6,
      "componentType": 5126,
      "count": 408,
      "max": [
        0.2885715663433075,
        0.723271906375885,
        0.6763185262680054
      ],
      "min": [
        0.10217498242855072,
        0.5366190075874329,
        0.4884737730026245
      ],
      "type": "VEC3"
    },
    {
      "bufferView": 7,
      "componentType": 5123,
      "count": 576,
      "max": [
        407
      ],
      "min": [
        0
      ],
      "type": "SCALAR"
    }
  ],
  "materials": [
    {
      "pbrMetallicRoughness": {
        "baseColorFactor": [
          1,
          1,
          1,
          0.18
        ],
        "metallicFactor": 1,
        "roughnessFactor": 0.7
      },
      "emissiveFactor": [
        0.6039215686274509,
        0.7568627450980392,
        0.9882352941176471
      ],
      "alphaMode": "BLEND",
      "name": "BlocksGlass"
    },
    {
      "pbrMetallicRoughness": {
        "metallicFactor": 1,
        "roughnessFactor": 0.6
      },
      "emissiveFactor": [
        0.8117647058823529,
        0.8627450980392157,
        0.996078431372549
      ],
      "name": "BlocksPaper"
    }
  ],
  "meshes": [
    {
      "primitives": [
        {
          "mode": 4,
          "attributes": {
            "COLOR_0": 0,
            "NORMAL": 1,
            "POSITION": 2
          },
          "indices": 3,
          "material": 0
        }
      ]
    },
    {
      "primitives": [
        {
          "mode": 4,
          "attributes": {
            "COLOR_0": 4,
            "NORMAL": 5,
            "POSITION": 6
          },
          "indices": 7,
          "material": 1
        }
      ]
    }
  ]
}