{
  "asset": {
    "version": "2.0",
    "generator": "THREE.GLTFExporter"
  },
  "scenes": [
    {
      "nodes": [
        1
      ],
      "name": "Scene"
    }
  ],
  "scene": 0,
  "nodes": [
    {
      "matrix": [
        1,
        0,
        0,
        0,
        0,
        1,
        0,
        0,
        0,
        0,
        1,
        0,
        -0.03,
        -2.02,
        0.44,
        1
      ],
      "name": "node_MeshObject1220319552-PolyPaper21",
      "extras": {
        "name": "node_MeshObject1220319552-PolyPaper21"
      },
      "mesh": 0
    },
    {
      "name": "model.gltf",
      "children": [
        0
      ]
    }
  ],
  "bufferViews": [
    {
      "buffer": 0,
      "byteOffset": 0,
      "byteLength": 44448,
      "target": 34962,
      "byteStride": 16
    },
    {
      "buffer": 0,
      "byteOffset": 44448,
      "byteLength": 33336,
      "target": 34962,
      "byteStride": 12
    },
    {
      "buffer": 0,
      "byteOffset": 77784,
      "byteLength": 33336,
      "target": 34962,
      "byteStride": 12
    },
    {
      "buffer": 0,
      "byteOffset": 111120,
      "byteLength": 7176,
      "target": 34963
    }
  ],
  "buffers": [
    {
      "byteLength": 118296,
      "uri": "data:application/octet-stream;base64,"
    }
  ],
  "accessors": [
    {
      "bufferView": 0,
      "componentType": 5126,
      "count": 2778,
      "max": [
        1,
        1,
        1,
        1
      ],
      "min": [
        0.006584956776350737,
        0.006584956776350737,
        0.006584956776350737,
        1
      ],
      "type": "VEC4"
    },
    {
      "bufferView": 1,
      "componentType": 5126,
      "count": 2778,
      "max": [
        0.9994014501571655,
        0.9989312291145325,
        0.9959964752197266
      ],
      "min": [
        -0.9994014501571655,
        -0.9995794892311096,
        -0.996271014213562
      ],
      "type": "VEC3"
    },
    {
      "bufferView": 2,
      "componentType": 5126,
      "count": 2778,
      "max": [
        0.1913253515958786,
        2.1934022903442383,
        -0.25709402561187744
      ],
      "min": [
        -0.15247926115989685,
        1.8976694345474243,
        -0.6182475686073303
      ],
      "type": "VEC3"
    },
    {
      "bufferView": 3,
      "componentType": 5123,
      "count": 3588,
      "max": [
        2777
      ],
      "min": [
        0
      ],
      "type": "SCALAR"
    }
  ],
  "materials": [
    {
      "pbrMetallicRoughness": {
        "metallicFactor": 0,
        "roughnessFactor": 0.6
      },
      "name": "BlocksPaper"
    }
  ],
  "meshes": [
    {
      "primitives": [
        {
          "mode": 4,
          "attributes": {
            "COLOR_0": 0,
            "NORMAL": 1,
            "POSITION": 2
          },
          "indices": 3,
          "material": 0
        }
      ]
    }
  ]
}